<svg xmlns="http://www.w3.org/2000/svg" width="1200" height="390" viewBox="0 0 1200 390" role="img" aria-labelledby="title desc">
  <title id="title">Tecnologias por área</title>
  <desc id="desc">Stack de Icaro organizada em três áreas: frontend, backend e APIs, dados, integrações e entrega</desc>
  <defs>
    <linearGradient id="bg" x1="0" x2="1">
      <stop offset="0" stop-color="#071a1f"/>
      <stop offset="0.5" stop-color="#0d282e"/>
      <stop offset="1" stop-color="#071a1f"/>
    </linearGradient>
    <linearGradient id="scan" x1="0" x2="1">
      <stop offset="0" stop-color="#25c4c7" stop-opacity="0"/>
      <stop offset="0.5" stop-color="#25c4c7" stop-opacity="0.13"/>
      <stop offset="1" stop-color="#25c4c7" stop-opacity="0"/>
    </linearGradient>
    <style>
      .kicker { font: 600 11px 'Segoe UI', Ubuntu, sans-serif; letter-spacing: 2px; fill: #25c4c7; }
      .area { font: 700 15px 'Segoe UI', Ubuntu, sans-serif; letter-spacing: 1px; fill: #f3f1e9; }
      .label { font: 600 9px 'Segoe UI', Ubuntu, sans-serif; fill: #b8c9ca; }
      .summary { font: 400 11px 'Segoe UI', Ubuntu, sans-serif; fill: #8ba4a6; }
      .brand { fill: currentColor; }
    </style>

    <!-- Logomarcas vetoriais de https://github.com/devicons/devicon e https://simpleicons.org, embutidas para funcionar no GitHub. -->
    <symbol id="react" viewBox="0 0 128 128">
      <g fill="#61DAFB"><circle cx="64" cy="64" r="11.4"/><path d="M107.3 45.2c-2.2-.8-4.5-1.6-6.9-2.3.6-2.4 1.1-4.8 1.5-7.1 2.1-13.2-.2-22.5-6.6-26.1-1.9-1.1-4-1.6-6.4-1.6-7 0-15.9 5.2-24.9 13.9-9-8.7-17.9-13.9-24.9-13.9-2.4 0-4.5.5-6.4 1.6-6.4 3.7-8.7 13-6.6 26.1.4 2.3.9 4.7 1.5 7.1-2.4.7-4.7 1.4-6.9 2.3C8.2 50 1.4 56.6 1.4 64s6.9 14 19.3 18.8c2.2.8 4.5 1.6 6.9 2.3-.6 2.4-1.1 4.8-1.5 7.1-2.1 13.2.2 22.5 6.6 26.1 1.9 1.1 4 1.6 6.4 1.6 7.1 0 16-5.2 24.9-13.9 9 8.7 17.9 13.9 24.9 13.9 2.4 0 4.5-.5 6.4-1.6 6.4-3.7 8.7-13 6.6-26.1-.4-2.3-.9-4.7-1.5-7.1 2.4-.7 4.7-1.4 6.9-2.3 12.5-4.8 19.3-11.4 19.3-18.8s-6.8-14-19.3-18.8zM92.5 14.7c4.1 2.4 5.5 9.8 3.8 20.3-.3 2.1-.8 4.3-1.4 6.6-5.2-1.2-10.7-2-16.5-2.5-3.4-4.8-6.9-9.1-10.4-13 7.4-7.3 14.9-12.3 21-12.3 1.3 0 2.5.3 3.5.9zM81.3 74c-1.8 3.2-3.9 6.4-6.1 9.6-3.7.3-7.4.4-11.2.4-3.9 0-7.6-.1-11.2-.4-2.2-3.2-4.2-6.4-6-9.6-1.9-3.3-3.7-6.7-5.3-10 1.6-3.3 3.4-6.7 5.3-10 1.8-3.2 3.9-6.4 6.1-9.6 3.7-.3 7.4-.4 11.2-.4 3.9 0 7.6.1 11.2.4 2.2 3.2 4.2 6.4 6 9.6 1.9 3.3 3.7 6.7 5.3 10-1.7 3.3-3.4 6.6-5.3 10zm8.3-3.3c1.5 3.5 2.7 6.9 3.8 10.3-3.4.8-7 1.4-10.8 1.9 1.2-1.9 2.5-3.9 3.6-6 1.2-2.1 2.3-4.2 3.4-6.2zM64 97.8c-2.4-2.6-4.7-5.4-6.9-8.3 2.3.1 4.6.2 6.9.2 2.3 0 4.6-.1 6.9-.2-2.2 2.9-4.5 5.7-6.9 8.3zm-18.6-15c-3.8-.5-7.4-1.1-10.8-1.9 1.1-3.3 2.3-6.8 3.8-10.3 1.1 2 2.2 4.1 3.4 6.1 1.2 2.2 2.4 4.1 3.6 6.1zm-7-25.5c-1.5-3.5-2.7-6.9-3.8-10.3 3.4-.8 7-1.4 10.8-1.9-1.2 1.9-2.5 3.9-3.6 6-1.2 2.1-2.3 4.2-3.4 6.2zM64 30.2c2.4 2.6 4.7 5.4 6.9 8.3-2.3-.1-4.6-.2-6.9-.2-2.3 0-4.6.1-6.9.2 2.2-2.9 4.5-5.7 6.9-8.3zm22.2 21l-3.6-6c3.8.5 7.4 1.1 10.8 1.9-1.1 3.3-2.3 6.8-3.8 10.3-1.1-2.1-2.2-4.2-3.4-6.2zM31.7 35c-1.7-10.5-.3-17.9 3.8-20.3 1-.6 2.2-.9 3.5-.9 6 0 13.5 4.9 21 12.3-3.5 3.8-7 8.2-10.4 13-5.8.5-11.3 1.4-16.5 2.5-.6-2.3-1-4.5-1.4-6.6zM7 64c0-4.7 5.7-9.7 15.7-13.4 2-.8 4.2-1.5 6.4-2.1 1.6 5 3.6 10.3 6 15.6-2.4 5.3-4.5 10.5-6 15.5C15.3 75.6 7 69.6 7 64zm28.5 49.3c-4.1-2.4-5.5-9.8-3.8-20.3.3-2.1.8-4.3 1.4-6.6 5.2 1.2 10.7 2 16.5 2.5 3.4 4.8 6.9 9.1 10.4 13-7.4 7.3-14.9 12.3-21 12.3-1.3 0-2.5-.3-3.5-.9zM96.3 93c1.7 10.5.3 17.9-3.8 20.3-1 .6-2.2.9-3.5.9-6 0-13.5-4.9-21-12.3 3.5-3.8 7-8.2 10.4-13 5.8-.5 11.3-1.4 16.5-2.5.6 2.3 1 4.5 1.4 6.6zm9-15.6c-2 .8-4.2 1.5-6.4 2.1-1.6-5-3.6-10.3-6-15.6 2.4-5.3 4.5-10.5 6-15.5 13.8 4 22.1 10 22.1 15.6 0 4.7-5.8 9.7-15.7 13.4z"/></g>
    </symbol>
    <symbol id="typescript" viewBox="0 0 128 128">
      <path fill="#fff" d="M22.67 47h99.67v73.67H22.67z"/><path data-name="original" fill="#007acc" d="M1.5 63.91v62.5h125v-125H1.5zm100.73-5a15.56 15.56 0 017.82 4.5 20.58 20.58 0 013 4c0 .16-5.4 3.81-8.69 5.85-.12.08-.6-.44-1.13-1.23a7.09 7.09 0 00-5.87-3.53c-3.79-.26-6.23 1.73-6.21 5a4.58 4.58 0 00.54 2.34c.83 1.73 2.38 2.76 7.24 4.86 8.95 3.85 12.78 6.39 15.16 10 2.66 4 3.25 10.46 1.45 15.24-2 5.2-6.9 8.73-13.83 9.9a38.32 38.32 0 01-9.52-.1 23 23 0 01-12.72-6.63c-1.15-1.27-3.39-4.58-3.25-4.82a9.34 9.34 0 011.15-.73L82 101l3.59-2.08.75 1.11a16.78 16.78 0 004.74 4.54c4 2.1 9.46 1.81 12.16-.62a5.43 5.43 0 00.69-6.92c-1-1.39-3-2.56-8.59-5-6.45-2.78-9.23-4.5-11.77-7.24a16.48 16.48 0 01-3.43-6.25 25 25 0 01-.22-8c1.33-6.23 6-10.58 12.82-11.87a31.66 31.66 0 019.49.26zm-29.34 5.24v5.12H56.66v46.23H45.15V69.26H28.88v-5a49.19 49.19 0 01.12-5.17C29.08 59 39 59 51 59h21.83z"/>
    </symbol>
    <symbol id="javascript" viewBox="0 0 128 128">
      <path fill="#F0DB4F" d="M1.408 1.408h125.184v125.185H1.408z"/><path fill="#323330" d="M116.347 96.736c-.917-5.711-4.641-10.508-15.672-14.981-3.832-1.761-8.104-3.022-9.377-5.926-.452-1.69-.512-2.642-.226-3.665.821-3.32 4.784-4.355 7.925-3.403 2.023.678 3.938 2.237 5.093 4.724 5.402-3.498 5.391-3.475 9.163-5.879-1.381-2.141-2.118-3.129-3.022-4.045-3.249-3.629-7.676-5.498-14.756-5.355l-3.688.477c-3.534.893-6.902 2.748-8.877 5.235-5.926 6.724-4.236 18.492 2.975 23.335 7.104 5.332 17.54 6.545 18.873 11.531 1.297 6.104-4.486 8.08-10.234 7.378-4.236-.881-6.592-3.034-9.139-6.949-4.688 2.713-4.688 2.713-9.508 5.485 1.143 2.499 2.344 3.63 4.26 5.795 9.068 9.198 31.76 8.746 35.83-5.176.165-.478 1.261-3.666.38-8.581zM69.462 58.943H57.753l-.048 30.272c0 6.438.333 12.34-.714 14.149-1.713 3.558-6.152 3.117-8.175 2.427-2.059-1.012-3.106-2.451-4.319-4.485-.333-.584-.583-1.036-.667-1.071l-9.52 5.83c1.583 3.249 3.915 6.069 6.902 7.901 4.462 2.678 10.459 3.499 16.731 2.059 4.082-1.189 7.604-3.652 9.448-7.401 2.666-4.915 2.094-10.864 2.07-17.444.06-10.735.001-21.468.001-32.237z"/>
    </symbol>
    <symbol id="vite" viewBox="0 0 128 128">
      <defs><linearGradient id="brand-vite-a" x1="6" x2="235" y1="33" y2="344" gradientTransform="translate(0 .937) scale(.3122)" gradientUnits="userSpaceOnUse"><stop offset="0" stop-color="#41d1ff"/><stop offset="1" stop-color="#bd34fe"/></linearGradient><linearGradient id="brand-vite-b" x1="194.651" x2="236.076" y1="8.818" y2="292.989" gradientTransform="translate(0 .937) scale(.3122)" gradientUnits="userSpaceOnUse"><stop offset="0" stop-color="#ffea83"/><stop offset=".083" stop-color="#ffdd35"/><stop offset="1" stop-color="#ffa800"/></linearGradient></defs><path fill="url(#brand-vite-a)" d="M124.766 19.52 67.324 122.238c-1.187 2.121-4.234 2.133-5.437.024L3.305 19.532c-1.313-2.302.652-5.087 3.261-4.622L64.07 25.187a3.09 3.09 0 0 0 1.11 0l56.3-10.261c2.598-.473 4.575 2.289 3.286 4.594Zm0 0"/><path fill="url(#brand-vite-b)" d="M91.46 1.43 48.954 9.758a1.56 1.56 0 0 0-1.258 1.437l-2.617 44.168a1.563 1.563 0 0 0 1.91 1.614l11.836-2.735a1.562 1.562 0 0 1 1.88 1.836l-3.517 17.219a1.562 1.562 0 0 0 1.985 1.805l7.308-2.223c1.133-.344 2.223.652 1.985 1.812l-5.59 27.047c-.348 1.692 1.902 2.614 2.84 1.164l.625-.968 34.64-69.13c.582-1.16-.421-2.48-1.69-2.234l-12.185 2.352a1.558 1.558 0 0 1-1.793-1.965l7.95-27.562A1.56 1.56 0 0 0 91.46 1.43Zm0 0"/>
    </symbol>
    <symbol id="html5" viewBox="0 0 128 128">
      <path fill="#E44D26" d="M19.037 113.876L9.032 1.661h109.936l-10.016 112.198-45.019 12.48z"/><path fill="#F16529" d="M64 116.8l36.378-10.086 8.559-95.878H64z"/><path fill="#EBEBEB" d="M64 52.455H45.788L44.53 38.361H64V24.599H29.489l.33 3.692 3.382 37.927H64zm0 35.743l-.061.017-15.327-4.14-.979-10.975H33.816l1.928 21.609 28.193 7.826.063-.017z"/><path fill="#fff" d="M63.952 52.455v13.763h16.947l-1.597 17.849-15.35 4.143v14.319l28.215-7.82.207-2.325 3.234-36.233.335-3.696h-3.708zm0-27.856v13.762h33.244l.276-3.092.628-6.978.329-3.692z"/>
    </symbol>
    <symbol id="css3" viewBox="0 0 128 128">
      <path fill="#1572B6" d="M18.814 114.123L8.76 1.352h110.48l-10.064 112.754-45.243 12.543-45.119-12.526z"/><path fill="#33A9DC" d="M64.001 117.062l36.559-10.136 8.601-96.354h-45.16v106.49z"/><path fill="#fff" d="M64.001 51.429h18.302l1.264-14.163H64.001V23.435h34.682l-.332 3.711-3.4 38.114h-30.95V51.429z"/><path fill="#EBEBEB" d="M64.083 87.349l-.061.018-15.403-4.159-.985-11.031H33.752l1.937 21.717 28.331 7.863.063-.018v-14.39z"/><path fill="#fff" d="M81.127 64.675l-1.666 18.522-15.426 4.164v14.39l28.354-7.858.208-2.337 2.406-26.881H81.127z"/><path fill="#EBEBEB" d="M64.048 23.435v13.831H30.64l-.277-3.108-.63-7.012-.331-3.711h34.646zm-.047 27.996v13.831H48.792l-.277-3.108-.631-7.012-.33-3.711h16.447z"/>
    </symbol>
    <symbol id="node" viewBox="0 0 128 128">
      <path fill="url(#brand-node-a)" d="M66.958.825a6.07 6.07 0 0 0-6.035 0L11.103 29.76c-1.895 1.072-2.96 3.095-2.96 5.24v57.988c0 2.143 1.183 4.167 2.958 5.24l49.82 28.934a6.07 6.07 0 0 0 6.036 0l49.82-28.935c1.894-1.072 2.958-3.096 2.958-5.24V35c0-2.144-1.183-4.167-2.958-5.24z"/><path fill="url(#brand-node-b)" d="M116.897 29.76 66.841.825A8.161 8.161 0 0 0 65.302.23L9.21 96.798a6.251 6.251 0 0 0 1.657 1.43l50.057 28.934c1.42.833 3.076 1.072 4.615.595l52.66-96.925a3.702 3.702 0 0 0-1.302-1.072z"/><path fill="url(#brand-node-c)" d="M116.898 98.225c1.42-.833 2.485-2.262 2.958-3.81L65.066.108c-1.42-.238-2.959-.119-4.26.715L11.104 29.639l53.606 98.355c.71-.12 1.54-.358 2.25-.715z"/><defs><linearGradient id="brand-node-a" x1="34.513" x2="27.157" y1="15.535" y2="30.448" gradientTransform="translate(-129.242 -73.715) scale(6.18523)" gradientUnits="userSpaceOnUse"><stop stop-color="#3F873F"/><stop offset=".33" stop-color="#3F8B3D"/><stop offset=".637" stop-color="#3E9638"/><stop offset=".934" stop-color="#3DA92E"/><stop offset="1" stop-color="#3DAE2B"/></linearGradient><linearGradient id="brand-node-b" x1="30.009" x2="50.533" y1="23.359" y2="8.288" gradientTransform="translate(-129.242 -73.715) scale(6.18523)" gradientUnits="userSpaceOnUse"><stop offset=".138" stop-color="#3F873F"/><stop offset=".402" stop-color="#52A044"/><stop offset=".713" stop-color="#64B749"/><stop offset=".908" stop-color="#6ABF4B"/></linearGradient><linearGradient id="brand-node-c" x1="21.917" x2="40.555" y1="22.261" y2="22.261" gradientTransform="translate(-129.242 -73.715) scale(6.18523)" gradientUnits="userSpaceOnUse"><stop offset=".092" stop-color="#6ABF4B"/><stop offset=".287" stop-color="#64B749"/><stop offset=".598" stop-color="#52A044"/><stop offset=".862" stop-color="#3F873F"/></linearGradient></defs>
    </symbol>
    <symbol id="express" viewBox="0 0 128 128">
      <g fill="#f3f1e9"><path d="M126.67 98.44c-4.56 1.16-7.38.05-9.91-3.75-5.68-8.51-11.95-16.63-18-24.9-.78-1.07-1.59-2.12-2.6-3.45C89 76 81.85 85.2 75.14 94.77c-2.4 3.42-4.92 4.91-9.4 3.7l26.92-36.13L67.6 29.71c4.31-.84 7.29-.41 9.93 3.45 5.83 8.52 12.26 16.63 18.67 25.21 6.45-8.55 12.8-16.67 18.8-25.11 2.41-3.42 5-4.72 9.33-3.46-3.28 4.35-6.49 8.63-9.72 12.88-4.36 5.73-8.64 11.53-13.16 17.14-1.61 2-1.35 3.3.09 5.19C109.9 76 118.16 87.1 126.67 98.44zM1.33 61.74c.72-3.61 1.2-7.29 2.2-10.83 6-21.43 30.6-30.34 47.5-17.06C60.93 41.64 63.39 52.62 62.9 65H7.1c-.84 22.21 15.15 35.62 35.53 28.78 7.15-2.4 11.36-8 13.47-15 1.07-3.51 2.84-4.06 6.14-3.06-1.69 8.76-5.52 16.08-13.52 20.66-12 6.86-29.13 4.64-38.14-4.89C5.26 85.89 3 78.92 2 71.39c-.15-1.2-.46-2.38-.7-3.57q.03-3.04.03-6.08zm5.87-1.49h50.43c-.33-16.06-10.33-27.47-24-27.57-15-.12-25.78 11.02-26.43 27.57z"/></g>
    </symbol>
    <symbol id="java" viewBox="0 0 128 128">
      <path fill="#0074BD" d="M47.617 98.12s-4.767 2.774 3.397 3.71c9.892 1.13 14.947.968 25.845-1.092 0 0 2.871 1.795 6.873 3.351-24.439 10.47-55.308-.607-36.115-5.969zm-2.988-13.665s-5.348 3.959 2.823 4.805c10.567 1.091 18.91 1.18 33.354-1.6 0 0 1.993 2.025 5.132 3.131-29.542 8.64-62.446.68-41.309-6.336z"/><path fill="#EA2D2E" d="M69.802 61.271c6.025 6.935-1.58 13.17-1.58 13.17s15.289-7.891 8.269-17.777c-6.559-9.215-11.587-13.792 15.635-29.58 0 .001-42.731 10.67-22.324 34.187z"/><path fill="#0074BD" d="M102.123 108.229s3.529 2.91-3.888 5.159c-14.102 4.272-58.706 5.56-71.094.171-4.451-1.938 3.899-4.625 6.526-5.192 2.739-.593 4.303-.485 4.303-.485-4.953-3.487-32.013 6.85-13.743 9.815 49.821 8.076 90.817-3.637 77.896-9.468zM49.912 70.294s-22.686 5.389-8.033 7.348c6.188.828 18.518.638 30.011-.326 9.39-.789 18.813-2.474 18.813-2.474s-3.308 1.419-5.704 3.053c-23.042 6.061-67.544 3.238-54.731-2.958 10.832-5.239 19.644-4.643 19.644-4.643zm40.697 22.747c23.421-12.167 12.591-23.86 5.032-22.285-1.848.385-2.677.72-2.677.72s.688-1.079 2-1.543c14.953-5.255 26.451 15.503-4.823 23.725 0-.002.359-.327.468-.617z"/><path fill="#EA2D2E" d="M76.491 1.587S89.459 14.563 64.188 34.51c-20.266 16.006-4.621 25.13-.007 35.559-11.831-10.673-20.509-20.07-14.688-28.815C58.041 28.42 81.722 22.195 76.491 1.587z"/><path fill="#0074BD" d="M52.214 126.021c22.476 1.437 57-.8 57.817-11.436 0 0-1.571 4.032-18.577 7.231-19.186 3.612-42.854 3.191-56.887.874 0 .001 2.875 2.381 17.647 3.331z"/>
    </symbol>
    <symbol id="rest" viewBox="0 0 24 24">
      <path d="m8 4-6 8 6 8m8-16 6 8-6 8M15 2l-6 20" fill="none" stroke="currentColor" stroke-width="1.8" stroke-linecap="round" stroke-linejoin="round"/>
    </symbol>
    <symbol id="supabase" viewBox="0 0 128 128">
      <defs><linearGradient id="brand-supabase-a" x1="53.974" x2="94.163" y1="54.974" y2="71.829" gradientTransform="translate(29.387 60.096) scale(1.1436)" gradientUnits="userSpaceOnUse"><stop offset="0" stop-color="#249361"/><stop offset="1" stop-color="#3ecf8e"/></linearGradient><linearGradient id="brand-supabase-b" x1="36.156" x2="54.484" y1="30.578" y2="65.081" gradientTransform="translate(29.387 60.096) scale(1.1436)" gradientUnits="userSpaceOnUse"><stop offset="0"/><stop offset="1" stop-opacity="0"/></linearGradient></defs><path fill="url(#brand-supabase-a)" d="M102.24 186.21c-3.267 4.117-9.904 1.862-9.977-3.397l-1.156-76.906h51.715c9.365 0 14.587 10.817 8.763 18.149z" transform="translate(-27.722 -60.338)"/><path fill="url(#brand-supabase-b)" fill-opacity=".2" d="M102.24 186.21c-3.267 4.117-9.904 1.862-9.977-3.397l-1.156-76.906h51.715c9.365 0 14.587 10.817 8.763 18.149z" transform="translate(-27.722 -60.338)"/><path fill="#3ecf8e" d="M53.484 2.128c3.267-4.117 9.905-1.862 9.977 3.396l.508 76.907H12.902c-9.365 0-14.587-10.817-8.764-18.149z"/>
    </symbol>
    <symbol id="postgresql" viewBox="0 0 128 128">
      <path d="M93.809 92.112c.785-6.533.55-7.492 5.416-6.433l1.235.108c3.742.17 8.637-.602 11.513-1.938 6.191-2.873 9.861-7.668 3.758-6.409-13.924 2.873-14.881-1.842-14.881-1.842 14.703-21.815 20.849-49.508 15.543-56.287-14.47-18.489-39.517-9.746-39.936-9.52l-.134.025c-2.751-.571-5.83-.912-9.289-.968-6.301-.104-11.082 1.652-14.709 4.402 0 0-44.683-18.409-42.604 23.151.442 8.841 12.672 66.898 27.26 49.362 5.332-6.412 10.484-11.834 10.484-11.834 2.558 1.699 5.622 2.567 8.834 2.255l.249-.212c-.078.796-.044 1.575.099 2.497-3.757 4.199-2.653 4.936-10.166 6.482-7.602 1.566-3.136 4.355-.221 5.084 3.535.884 11.712 2.136 17.238-5.598l-.22.882c1.474 1.18 1.375 8.477 1.583 13.69.209 5.214.558 10.079 1.621 12.948 1.063 2.868 2.317 10.256 12.191 8.14 8.252-1.764 14.561-4.309 15.136-27.985"/><path d="M75.458 125.256c-4.367 0-7.211-1.689-8.938-3.32-2.607-2.46-3.641-5.629-4.259-7.522l-.267-.79c-1.244-3.358-1.666-8.193-1.916-14.419-.038-.935-.064-1.898-.093-2.919-.021-.747-.047-1.684-.085-2.664a18.8 18.8 0 01-4.962 1.568c-3.079.526-6.389.356-9.84-.507-2.435-.609-4.965-1.871-6.407-3.82-4.203 3.681-8.212 3.182-10.396 2.453-3.853-1.285-7.301-4.896-10.542-11.037-2.309-4.375-4.542-10.075-6.638-16.943-3.65-11.96-5.969-24.557-6.175-28.693C4.292 23.698 7.777 14.44 15.296 9.129 27.157.751 45.128 5.678 51.68 7.915c4.402-2.653 9.581-3.944 15.433-3.851 3.143.051 6.136.327 8.916.823 2.9-.912 8.628-2.221 15.185-2.139 12.081.144 22.092 4.852 28.949 13.615 4.894 6.252 2.474 19.381.597 26.651-2.642 10.226-7.271 21.102-12.957 30.57 1.544.011 3.781-.174 6.961-.831 6.274-1.295 8.109 2.069 8.607 3.575 1.995 6.042-6.677 10.608-9.382 11.864-3.466 1.609-9.117 2.589-13.745 2.377l-.202-.013-1.216-.107-.12 1.014-.116.991c-.311 11.999-2.025 19.598-5.552 24.619-3.697 5.264-8.835 6.739-13.361 7.709-1.544.33-2.947.474-4.219.474zm-9.19-43.671c2.819 2.256 3.066 6.501 3.287 14.434.028.99.054 1.927.089 2.802.106 2.65.355 8.855 1.327 11.477.137.371.26.747.39 1.146 1.083 3.316 1.626 4.979 6.309 3.978 3.931-.843 5.952-1.599 7.534-3.851 2.299-3.274 3.585-9.86 3.821-19.575l4.783.116-4.75-.57.14-1.186c.455-3.91.783-6.734 3.396-8.602 2.097-1.498 4.486-1.353 6.389-1.01-2.091-1.58-2.669-3.433-2.823-4.193l-.399-1.965 1.121-1.663c6.457-9.58 11.781-21.354 14.609-32.304 2.906-11.251 2.02-17.226 1.134-18.356-11.729-14.987-32.068-8.799-34.192-8.097l-.359.194-1.8.335-.922-.191c-2.542-.528-5.366-.82-8.393-.869-4.756-.08-8.593 1.044-11.739 3.431l-2.183 1.655-2.533-1.043c-5.412-2.213-21.308-6.662-29.696-.721-4.656 3.298-6.777 9.76-6.305 19.207.156 3.119 2.275 14.926 5.771 26.377 4.831 15.825 9.221 21.082 11.054 21.693.32.108 1.15-.537 1.976-1.529a270.708 270.708 0 0110.694-12.07l2.77-2.915 3.349 2.225c1.35.897 2.839 1.406 4.368 1.502l7.987-6.812-1.157 11.808c-.026.265-.039.626.065 1.296l.348 2.238-1.51 1.688-.174.196 4.388 2.025 1.836-2.301z"/><path fill="#336791" d="M115.731 77.44c-13.925 2.873-14.882-1.842-14.882-1.842 14.703-21.816 20.849-49.51 15.545-56.287C101.924.823 76.875 9.566 76.457 9.793l-.135.024c-2.751-.571-5.83-.911-9.291-.967-6.301-.103-11.08 1.652-14.707 4.402 0 0-44.684-18.408-42.606 23.151.442 8.842 12.672 66.899 27.26 49.363 5.332-6.412 10.483-11.834 10.483-11.834 2.559 1.699 5.622 2.567 8.833 2.255l.25-.212c-.078.796-.042 1.575.1 2.497-3.758 4.199-2.654 4.936-10.167 6.482-7.602 1.566-3.136 4.355-.22 5.084 3.534.884 11.712 2.136 17.237-5.598l-.221.882c1.473 1.18 2.507 7.672 2.334 13.557-.174 5.885-.29 9.926.871 13.082 1.16 3.156 2.316 10.256 12.192 8.14 8.252-1.768 12.528-6.351 13.124-13.995.422-5.435 1.377-4.631 1.438-9.49l.767-2.3c.884-7.367.14-9.743 5.225-8.638l1.235.108c3.742.17 8.639-.602 11.514-1.938 6.19-2.871 9.861-7.667 3.758-6.408z"/><path fill="#fff" d="M75.957 122.307c-8.232 0-10.84-6.519-11.907-9.185-1.562-3.907-1.899-19.069-1.551-31.503a1.59 1.59 0 011.64-1.55 1.594 1.594 0 011.55 1.639c-.401 14.341.168 27.337 1.324 30.229 1.804 4.509 4.54 8.453 12.275 6.796 7.343-1.575 10.093-4.359 11.318-11.46.94-5.449 2.799-20.951 3.028-24.01a1.593 1.593 0 011.71-1.472 1.597 1.597 0 011.472 1.71c-.239 3.185-2.089 18.657-3.065 24.315-1.446 8.387-5.185 12.191-13.794 14.037-1.463.313-2.792.453-4 .454zM31.321 90.466a6.71 6.71 0 01-2.116-.35c-5.347-1.784-10.44-10.492-15.138-25.885-3.576-11.717-5.842-23.947-6.041-27.922-.589-11.784 2.445-20.121 9.02-24.778 13.007-9.216 34.888-.44 35.813-.062a1.596 1.596 0 01-1.207 2.955c-.211-.086-21.193-8.492-32.768-.285-5.622 3.986-8.203 11.392-7.672 22.011.167 3.349 2.284 15.285 5.906 27.149 4.194 13.742 8.967 22.413 13.096 23.79.648.216 2.62.873 5.439-2.517A245.272 245.272 0 0145.88 73.046a1.596 1.596 0 012.304 2.208c-.048.05-4.847 5.067-10.077 11.359-2.477 2.979-4.851 3.853-6.786 3.853zm69.429-13.445a1.596 1.596 0 01-1.322-2.487c14.863-22.055 20.08-48.704 15.612-54.414-5.624-7.186-13.565-10.939-23.604-11.156-7.433-.16-13.341 1.738-14.307 2.069l-.243.099c-.971.305-1.716-.227-1.997-.849a1.6 1.6 0 01.631-2.025c.046-.027.192-.089.429-.176l-.021.006.021-.007c1.641-.601 7.639-2.4 15.068-2.315 11.108.118 20.284 4.401 26.534 12.388 2.957 3.779 2.964 12.485.019 23.887-3.002 11.625-8.651 24.118-15.497 34.277-.306.457-.81.703-1.323.703zm.76 10.21c-2.538 0-4.813-.358-6.175-1.174-1.4-.839-1.667-1.979-1.702-2.584-.382-6.71 3.32-7.878 5.208-8.411-.263-.398-.637-.866-1.024-1.349-1.101-1.376-2.609-3.26-3.771-6.078-.182-.44-.752-1.463-1.412-2.648-3.579-6.418-11.026-19.773-6.242-26.612 2.214-3.165 6.623-4.411 13.119-3.716C97.6 28.837 88.5 10.625 66.907 10.271c-6.494-.108-11.82 1.889-15.822 5.93-8.96 9.049-8.636 25.422-8.631 25.586a1.595 1.595 0 11-3.19.084c-.02-.727-.354-17.909 9.554-27.916C53.455 9.272 59.559 6.96 66.96 7.081c13.814.227 22.706 7.25 27.732 13.101 5.479 6.377 8.165 13.411 8.386 15.759.165 1.746-1.088 2.095-1.341 2.147l-.576.013c-6.375-1.021-10.465-.312-12.156 2.104-3.639 5.201 3.406 17.834 6.414 23.229.768 1.376 1.322 2.371 1.576 2.985.988 2.396 2.277 4.006 3.312 5.3.911 1.138 1.7 2.125 1.982 3.283.131.23 1.99 2.98 13.021.703 2.765-.57 4.423-.083 4.93 1.45.997 3.015-4.597 6.532-7.694 7.97-2.775 1.29-7.204 2.106-11.036 2.106zm-4.696-4.021c.35.353 2.101.962 5.727.806 3.224-.138 6.624-.839 8.664-1.786 2.609-1.212 4.351-2.567 5.253-3.492l-.5.092c-7.053 1.456-12.042 1.262-14.828-.577a6.162 6.162 0 01-.54-.401c-.302.119-.581.197-.78.253-1.58.443-3.214.902-2.996 5.105zm-45.562 8.915c-1.752 0-3.596-.239-5.479-.71-1.951-.488-5.24-1.957-5.19-4.37.057-2.707 3.994-3.519 5.476-3.824 5.354-1.103 5.703-1.545 7.376-3.67.488-.619 1.095-1.39 1.923-2.314 1.229-1.376 2.572-2.073 3.992-2.073.989 0 1.8.335 2.336.558 1.708.708 3.133 2.42 3.719 4.467.529 1.847.276 3.625-.71 5.006-3.237 4.533-7.886 6.93-13.443 6.93zm-7.222-4.943c.481.372 1.445.869 2.518 1.137 1.631.408 3.213.615 4.705.615 4.546 0 8.196-1.882 10.847-5.594.553-.774.387-1.757.239-2.274-.31-1.083-1.08-2.068-1.873-2.397-.43-.178-.787-.314-1.115-.314-.176 0-.712 0-1.614 1.009a41.146 41.146 0 00-1.794 2.162c-2.084 2.646-3.039 3.544-9.239 4.821-1.513.31-2.289.626-2.674.835zm12.269-7.36a1.596 1.596 0 01-1.575-1.354 8.218 8.218 0 01-.08-.799c-4.064-.076-7.985-1.82-10.962-4.926-3.764-3.927-5.477-9.368-4.699-14.927.845-6.037.529-11.366.359-14.229-.047-.796-.081-1.371-.079-1.769.003-.505.013-1.844 4.489-4.113 1.592-.807 4.784-2.215 8.271-2.576 5.777-.597 9.585 1.976 10.725 7.246 3.077 14.228.244 20.521-1.825 25.117-.385.856-.749 1.664-1.04 2.447l-.257.69c-1.093 2.931-2.038 5.463-1.748 7.354a1.595 1.595 0 01-1.335 1.819l-.244.02zM42.464 42.26l.062 1.139c.176 2.974.504 8.508-.384 14.86-.641 4.585.759 9.06 3.843 12.276 2.437 2.542 5.644 3.945 8.94 3.945h.068c.369-1.555.982-3.197 1.642-4.966l.255-.686c.329-.884.714-1.74 1.122-2.646 1.991-4.424 4.47-9.931 1.615-23.132-.565-2.615-1.936-4.128-4.189-4.627-4.628-1.022-11.525 2.459-12.974 3.837zm9.63-.677c-.08.564 1.033 2.07 2.485 2.271 1.449.203 2.689-.975 2.768-1.539.079-.564-1.033-1.186-2.485-1.388-1.451-.202-2.691.092-2.768.656zm2.818 2.826l-.407-.028c-.9-.125-1.81-.692-2.433-1.518-.219-.29-.576-.852-.505-1.354.101-.736.999-1.177 2.4-1.177.313 0 .639.023.967.069.766.106 1.477.327 2.002.62.91.508.977 1.075.936 1.368-.112.813-1.405 2.02-2.96 2.02zm-2.289-2.732c.045.348.907 1.496 2.029 1.651l.261.018c1.036 0 1.81-.815 1.901-1.082-.096-.182-.762-.634-2.025-.81a5.823 5.823 0 00-.821-.059c-.812 0-1.243.183-1.345.282zm43.605-1.245c.079.564-1.033 2.07-2.484 2.272-1.45.202-2.691-.975-2.771-1.539-.076-.564 1.036-1.187 2.486-1.388 1.45-.203 2.689.092 2.769.655zm-2.819 2.56c-1.396 0-2.601-1.086-2.7-1.791-.115-.846 1.278-1.489 2.712-1.688.316-.044.629-.066.93-.066 1.238 0 2.058.363 2.14.949.053.379-.238.964-.739 1.492-.331.347-1.026.948-1.973 1.079l-.37.025zm.943-3.013c-.276 0-.564.021-.856.061-1.441.201-2.301.779-2.259 1.089.048.341.968 1.332 2.173 1.332l.297-.021c.787-.109 1.378-.623 1.66-.919.443-.465.619-.903.598-1.052-.028-.198-.56-.49-1.613-.49zm3.965 32.843a1.594 1.594 0 01-1.324-2.483c3.398-5.075 2.776-10.25 2.175-15.255-.257-2.132-.521-4.337-.453-6.453.07-2.177.347-3.973.614-5.71.317-2.058.617-4.002.493-6.31a1.595 1.595 0 113.186-.172c.142 2.638-.197 4.838-.525 6.967-.253 1.643-.515 3.342-.578 5.327-.061 1.874.178 3.864.431 5.97.64 5.322 1.365 11.354-2.691 17.411a1.596 1.596 0 01-1.328.708z"/>
    </symbol>
    <symbol id="sqlite" viewBox="0 0 128 128">
      <defs><linearGradient id="brand-sqlite-sqlite-original-a" x1="-15.615" x2="-6.741" y1="-9.108" y2="-9.108" gradientTransform="rotate(90 -90.486 64.634) scale(9.2712)" gradientUnits="userSpaceOnUse"><stop stop-color="#95d7f4" offset="0"/><stop stop-color="#0f7fcc" offset=".92"/><stop stop-color="#0f7fcc" offset="1"/></linearGradient></defs><path d="M69.5 99.176c-.059-.73-.094-1.2-.094-1.2S67.2 83.087 64.57 78.642c-.414-.707.043-3.594 1.207-7.88.68 1.169 3.54 6.192 4.118 7.81.648 1.824.78 2.347.78 2.347s-1.57-8.082-4.144-12.797a162.286 162.286 0 012.004-6.265c.973 1.71 3.313 5.859 3.828 7.3.102.293.192.543.27.774.023-.137.05-.274.074-.414-.59-2.504-1.75-6.86-3.336-10.082 3.52-18.328 15.531-42.824 27.84-53.754H16.9c-5.387 0-9.789 4.406-9.789 9.789v88.57c0 5.383 4.406 9.789 9.79 9.789h52.897a118.657 118.657 0 01-.297-14.652" fill="#0b7fcc"/><path d="M65.777 70.762c.68 1.168 3.54 6.188 4.117 7.809.649 1.824.781 2.347.781 2.347s-1.57-8.082-4.144-12.797a164.535 164.535 0 012.004-6.27c.887 1.567 2.922 5.169 3.652 6.872l.082-.961c-.648-2.496-1.633-5.766-2.898-8.328 3.242-16.871 13.68-38.97 24.926-50.898H16.899a6.94 6.94 0 00-6.934 6.933v82.11c17.527-6.731 38.664-12.88 56.855-12.614-.672-2.605-1.441-4.96-2.25-6.324-.414-.707.043-3.597 1.207-7.879" fill="url(#brand-sqlite-sqlite-original-a)"/><path d="M115.95 2.781c-5.5-4.906-12.164-2.933-18.734 2.899a44.347 44.347 0 00-2.914 2.859c-11.25 11.926-21.684 34.023-24.926 50.895 1.262 2.563 2.25 5.832 2.894 8.328.168.64.32 1.242.442 1.754.285 1.207.437 1.996.437 1.996s-.101-.383-.515-1.582c-.078-.23-.168-.484-.27-.773-.043-.125-.105-.274-.172-.434-.734-1.703-2.765-5.305-3.656-6.867-.762 2.25-1.437 4.36-2.004 6.265 2.578 4.715 4.149 12.797 4.149 12.797s-.137-.523-.782-2.347c-.578-1.621-3.441-6.64-4.117-7.809-1.164 4.281-1.625 7.172-1.207 7.88.809 1.362 1.574 3.722 2.25 6.323 1.524 5.867 2.586 13.012 2.586 13.012s.031.469.094 1.2a118.653 118.653 0 00.297 14.651c.504 6.11 1.453 11.363 2.664 14.172l.828-.449c-1.781-5.535-2.504-12.793-2.188-21.156.48-12.793 3.422-28.215 8.856-44.289 9.191-24.27 21.938-43.738 33.602-53.035-10.633 9.602-25.023 40.684-29.332 52.195-4.82 12.891-8.238 24.984-10.301 36.574 3.55-10.863 15.047-15.53 15.047-15.53s5.637-6.958 12.227-16.888c-3.95.903-10.43 2.442-12.598 3.352-3.2 1.344-4.067 1.8-4.067 1.8s10.371-6.312 19.27-9.171c12.234-19.27 25.562-46.648 12.141-58.621" fill="#003956"/>
    </symbol>
    <symbol id="oracle" viewBox="0 0 128 128">
      <path fill="#EA1B22" d="M55.387 66.469h8.333l-4.407-7.09-8.088 12.819h-3.681L57.382 56.8a2.324 2.324 0 011.931-.998c.765 0 1.478.363 1.892.972l9.876 15.424H67.4l-1.736-2.865h-8.438l-1.839-2.864zm38.235 2.864V55.958h-3.123v14.685c0 .402.156.791.454 1.089.298.298.7.466 1.141.466h14.244l1.841-2.865H93.622zm-51.677-2.397c3.033 0 5.496-2.449 5.496-5.482s-2.462-5.496-5.496-5.496H28.28v16.241h3.123V58.822h10.335c1.452 0 2.618 1.18 2.618 2.631s-1.167 2.631-2.618 2.631l-8.806-.013 9.324 8.127h4.538l-6.274-5.263h1.425zM9.059 72.198c-4.483 0-8.122-3.629-8.122-8.114s3.638-8.127 8.122-8.127h9.439c4.485 0 8.121 3.643 8.121 8.127s-3.636 8.114-8.121 8.114H9.059zm9.229-2.865a5.25 5.25 0 005.258-5.249 5.262 5.262 0 00-5.258-5.263H9.267a5.262 5.262 0 00-5.256 5.263 5.25 5.25 0 005.256 5.249h9.021zm59.314 2.865c-4.484 0-8.126-3.629-8.126-8.114s3.642-8.127 8.126-8.127h11.212l-1.829 2.864H77.81a5.267 5.267 0 00-5.264 5.263c0 2.903 2.36 5.249 5.264 5.249h11.263l-1.84 2.865h-9.631zm38.197-2.865a5.25 5.25 0 01-5.055-3.824h13.35l1.84-2.864h-15.19a5.266 5.266 0 015.055-3.824h9.163l1.854-2.864h-11.225c-4.484 0-8.126 3.643-8.126 8.127s3.642 8.114 8.126 8.114h9.631l1.841-2.865h-11.264"/>
    </symbol>
    <symbol id="docker" viewBox="0 0 128 128">
      <path fill-rule="evenodd" clip-rule="evenodd" fill="#3A4D54" d="M73.8 50.8h11.3v11.5h5.7c2.6 0 5.3-.5 7.8-1.3 1.2-.4 2.6-1 3.8-1.7-1.6-2.1-2.4-4.7-2.6-7.3-.3-3.5.4-8.1 2.8-10.8l1.2-1.4 1.4 1.1c3.6 2.9 6.5 6.8 7.1 11.4 4.3-1.3 9.3-1 13.1 1.2l1.5.9-.8 1.6c-3.2 6.2-9.9 8.2-16.4 7.8-9.8 24.3-31 35.8-56.8 35.8-13.3 0-25.5-5-32.5-16.8l-.1-.2-1-2.1c-2.4-5.2-3.1-10.9-2.6-16.6l.2-1.7h9.6V50.8h11.3V39.6h22.5V28.3h13.5v22.5z"/><path fill="#00AADA" d="M110.4 55.1c.8-5.9-3.6-10.5-6.4-12.7-3.1 3.6-3.6 13.2 1.3 17.2-2.8 2.4-8.5 4.7-14.5 4.7H18.6c-.6 6.2.5 11.9 3 16.8l.8 1.5c.5.9 1.1 1.7 1.7 2.6 3 .2 5.7.3 8.2.2 4.9-.1 8.9-.7 12-1.7.5-.2.9.1 1.1.5.2.5-.1.9-.5 1.1-.4.1-.8.3-1.3.4-2.4.7-5 1.1-8.3 1.3h-.6c-1.3.1-2.7.1-4.2.1-1.6 0-3.1 0-4.9-.1 6 6.8 15.4 10.8 27.2 10.8 25 0 46.2-11.1 55.5-35.9 6.7.7 13.1-1 16-6.7-4.5-2.7-10.5-1.8-13.9-.1z"/><path fill="#28B8EB" d="M110.4 55.1c.8-5.9-3.6-10.5-6.4-12.7-3.1 3.6-3.6 13.2 1.3 17.2-2.8 2.4-8.5 4.7-14.5 4.7h-68c-.3 9.5 3.2 16.7 9.5 21 4.9-.1 8.9-.7 12-1.7.5-.2.9.1 1.1.5.2.5-.1.9-.5 1.1-.4.1-.8.3-1.3.4-2.4.7-5.2 1.2-8.5 1.4l-.1-.1c8.5 4.4 20.8 4.3 35-1.1 15.8-6.1 30.6-17.7 40.9-30.9-.2.1-.4.1-.5.2z"/><path fill="#028BB8" d="M18.7 71.8c.4 3.3 1.4 6.4 2.9 9.3l.8 1.5c.5.9 1.1 1.7 1.7 2.6 3 .2 5.7.3 8.2.2 4.9-.1 8.9-.7 12-1.7.5-.2.9.1 1.1.5.2.5-.1.9-.5 1.1-.4.1-.8.3-1.3.4-2.4.7-5.2 1.2-8.5 1.4h-.4c-1.3.1-2.7.1-4.1.1-1.6 0-3.2 0-4.9-.1 6 6.8 15.5 10.8 27.3 10.8 21.4 0 40-8.1 50.8-26H18.7v-.1z"/><path fill="#019BC6" d="M23.5 71.8c1.3 5.8 4.3 10.4 8.8 13.5 4.9-.1 8.9-.7 12-1.7.5-.2.9.1 1.1.5.2.5-.1.9-.5 1.1-.4.1-.8.3-1.3.4-2.4.7-5.2 1.2-8.6 1.4 8.5 4.4 20.8 4.3 34.9-1.1 8.5-3.3 16.8-8.2 24.2-14.1H23.5z"/><path fill-rule="evenodd" clip-rule="evenodd" fill="#00ACD3" d="M28.4 52.7h9.8v9.8h-9.8v-9.8zm.8.8h.8v8.1h-.8v-8.1zm1.4 0h.8v8.1h-.8v-8.1zm1.5 0h.8v8.1h-.8v-8.1zm1.5 0h.8v8.1h-.8v-8.1zm1.5 0h.8v8.1h-.8v-8.1zm1.5 0h.8v8.1h-.8v-8.1zm3-12h9.8v9.8h-9.8v-9.8zm.9.8h.8v8.1h-.8v-8.1zm1.4 0h.8v8.1h-.8v-8.1zm1.5 0h.8v8.1h-.8v-8.1zm1.5 0h.8v8.1h-.8v-8.1zm1.4 0h.8v8.1h-.8v-8.1zm1.5 0h.8v8.1h-.8v-8.1z"/><path fill-rule="evenodd" clip-rule="evenodd" fill="#23C2EE" d="M39.6 52.7h9.8v9.8h-9.8v-9.8zm.9.8h.8v8.1h-.8v-8.1zm1.4 0h.8v8.1h-.8v-8.1zm1.5 0h.8v8.1h-.8v-8.1zm1.5 0h.8v8.1h-.8v-8.1zm1.4 0h.8v8.1h-.8v-8.1zm1.5 0h.8v8.1h-.8v-8.1z"/><path fill-rule="evenodd" clip-rule="evenodd" fill="#00ACD3" d="M50.9 52.7h9.8v9.8h-9.8v-9.8zm.8.8h.8v8.1h-.8v-8.1zm1.5 0h.8v8.1h-.8v-8.1zm1.5 0h.8v8.1h-.8v-8.1zm1.4 0h.8v8.1h-.8v-8.1zm1.5 0h.8v8.1h-.8v-8.1zm1.5 0h.8v8.1h-.8v-8.1z"/><path fill-rule="evenodd" clip-rule="evenodd" fill="#23C2EE" d="M50.9 41.5h9.8v9.8h-9.8v-9.8zm.8.8h.8v8.1h-.8v-8.1zm1.5 0h.8v8.1h-.8v-8.1zm1.5 0h.8v8.1h-.8v-8.1zm1.4 0h.8v8.1h-.8v-8.1zm1.5 0h.8v8.1h-.8v-8.1zm1.5 0h.8v8.1h-.8v-8.1zm3.1 10.4H72v9.8h-9.8v-9.8zm.8.8h.8v8.1H63v-8.1zm1.5 0h.8v8.1h-.8v-8.1zm1.4 0h.8v8.1h-.8v-8.1zm1.5 0h.8v8.1h-.8v-8.1zm1.5 0h.8v8.1h-.8v-8.1zm1.5 0h.8v8.1h-.8v-8.1z"/><path fill-rule="evenodd" clip-rule="evenodd" fill="#00ACD3" d="M62.2 41.5H72v9.8h-9.8v-9.8zm.8.8h.8v8.1H63v-8.1zm1.5 0h.8v8.1h-.8v-8.1zm1.4 0h.8v8.1h-.8v-8.1zm1.5 0h.8v8.1h-.8v-8.1zm1.5 0h.8v8.1h-.8v-8.1zm1.5 0h.8v8.1h-.8v-8.1z"/><path fill-rule="evenodd" clip-rule="evenodd" fill="#23C2EE" d="M62.2 30.2H72V40h-9.8v-9.8zm.8.8h.8v8.1H63V31zm1.5 0h.8v8.1h-.8V31zm1.4 0h.8v8.1h-.8V31zm1.5 0h.8v8.1h-.8V31zm1.5 0h.8v8.1h-.8V31zm1.5 0h.8v8.1h-.8V31z"/><path fill-rule="evenodd" clip-rule="evenodd" fill="#00ACD3" d="M73.5 52.7h9.8v9.8h-9.8v-9.8zm.8.8h.8v8.1h-.8v-8.1zm1.4 0h.8v8.1h-.8v-8.1zm1.5 0h.8v8.1h-.8v-8.1zm1.5 0h.8v8.1h-.8v-8.1zm1.5 0h.8v8.1h-.8v-8.1zm1.5 0h.8v8.1h-.8v-8.1z"/><path fill-rule="evenodd" clip-rule="evenodd" fill="#D4EEF1" d="M48.8 78.3c1.5 0 2.7 1.2 2.7 2.7 0 1.5-1.2 2.7-2.7 2.7-1.5 0-2.7-1.2-2.7-2.7 0-1.5 1.2-2.7 2.7-2.7"/><path fill-rule="evenodd" clip-rule="evenodd" fill="#3A4D54" d="M48.8 79.1c.2 0 .5 0 .7.1-.2.1-.4.4-.4.7 0 .4.4.8.8.8.3 0 .6-.2.7-.4.1.2.1.5.1.7 0 1.1-.9 1.9-1.9 1.9-1.1 0-1.9-.9-1.9-1.9 0-1 .8-1.9 1.9-1.9M1.1 72.8h125.4c-2.7-.7-8.6-1.6-7.7-5.2-5 5.7-16.9 4-20 1.2-3.4 4.9-23 3-24.3-.8-4.2 5-17.3 5-21.5 0-1.4 3.8-21 5.7-24.3.8-3 2.8-15 4.5-20-1.2 1.1 3.5-4.9 4.5-7.6 5.2"/><path fill="#BFDBE0" d="M56 97.8c-6.7-3.2-10.3-7.5-12.4-12.2-2.5.7-5.5 1.2-8.9 1.4-1.3.1-2.7.1-4.1.1-1.7 0-3.4 0-5.2-.1 6 6 13.6 10.7 27.5 10.8H56z"/><path fill="#D4EEF1" d="M46.1 89.9c-.9-1.3-1.8-2.8-2.5-4.3-2.5.7-5.5 1.2-8.9 1.4 2.3 1.2 5.7 2.4 11.4 2.9z"/>
    </symbol>
    <symbol id="actions" viewBox="0 0 128 128">
      <path fill="#2088ff" d="M26.666 0C11.97 0 0 11.97 0 26.666c0 12.87 9.181 23.651 21.334 26.13v37.87c0 11.77 9.68 21.334 21.332 21.334h.195c1.302 9.023 9.1 16 18.473 16C71.612 128 80 119.612 80 109.334s-8.388-18.668-18.666-18.668c-9.372 0-17.17 6.977-18.473 16h-.195c-8.737 0-16-7.152-16-16V63.779a18.514 18.514 0 0 0 13.24 5.555h2.955c1.303 9.023 9.1 16 18.473 16 9.372 0 17.169-6.977 18.47-16h11.057c1.303 9.023 9.1 16 18.473 16 10.278 0 18.666-8.39 18.666-18.668C128 56.388 119.612 48 109.334 48c-9.373 0-17.171 6.977-18.473 16H79.805c-1.301-9.023-9.098-16-18.471-16s-17.171 6.977-18.473 16h-2.955c-6.433 0-11.793-4.589-12.988-10.672 14.58-.136 26.416-12.05 26.416-26.662C53.334 11.97 41.362 0 26.666 0zm0 5.334A21.292 21.292 0 0 1 48 26.666 21.294 21.294 0 0 1 26.666 48 21.292 21.292 0 0 1 5.334 26.666 21.29 21.29 0 0 1 26.666 5.334zm-5.215 7.541C18.67 12.889 16 15.123 16 18.166v17.043c0 4.043 4.709 6.663 8.145 4.533l13.634-8.455c3.257-2.02 3.274-7.002.032-9.045l-13.635-8.59a5.024 5.024 0 0 0-2.725-.777zm-.117 5.291 13.635 8.588-13.635 8.455V18.166zm40 35.168a13.29 13.29 0 0 1 13.332 13.332A13.293 13.293 0 0 1 61.334 80 13.294 13.294 0 0 1 48 66.666a13.293 13.293 0 0 1 13.334-13.332zm48 0a13.29 13.29 0 0 1 13.332 13.332A13.293 13.293 0 0 1 109.334 80 13.294 13.294 0 0 1 96 66.666a13.293 13.293 0 0 1 13.334-13.332zm-42.568 6.951a2.667 2.667 0 0 0-1.887.78l-6.3 6.294-2.093-2.084a2.667 2.667 0 0 0-3.771.006 2.667 2.667 0 0 0 .008 3.772l3.974 3.96a2.667 2.667 0 0 0 3.766-.001l8.185-8.174a2.667 2.667 0 0 0 .002-3.772 2.667 2.667 0 0 0-1.884-.78zm48 0a2.667 2.667 0 0 0-1.887.78l-6.3 6.294-2.093-2.084a2.667 2.667 0 0 0-3.771.006 2.667 2.667 0 0 0 .008 3.772l3.974 3.96a2.667 2.667 0 0 0 3.766-.001l8.185-8.174a2.667 2.667 0 0 0 .002-3.772 2.667 2.667 0 0 0-1.884-.78zM61.334 96a13.293 13.293 0 0 1 13.332 13.334 13.29 13.29 0 0 1-13.332 13.332A13.293 13.293 0 0 1 48 109.334 13.294 13.294 0 0 1 61.334 96zM56 105.334c-2.193 0-4 1.807-4 4 0 2.195 1.808 4 4 4s4-1.805 4-4c0-2.193-1.807-4-4-4zm10.666 0c-2.193 0-4 1.807-4 4 0 2.195 1.808 4 4 4s4-1.805 4-4c0-2.193-1.807-4-4-4zM56 108c.75 0 1.334.585 1.334 1.334 0 .753-.583 1.332-1.334 1.332-.75 0-1.334-.58-1.334-1.332 0-.75.585-1.334 1.334-1.334zm10.666 0c.75 0 1.334.585 1.334 1.334 0 .753-.583 1.332-1.334 1.332-.75 0-1.332-.58-1.332-1.332 0-.75.583-1.334 1.332-1.334z"/><path fill="#79b8ff" d="M109.334 90.666c-9.383 0-17.188 6.993-18.477 16.031a2.667 2.667 0 0 0-.265-.011l-2.7.09a2.667 2.667 0 0 0-2.578 2.751 2.667 2.667 0 0 0 2.752 2.578l2.7-.087a2.667 2.667 0 0 0 .097-.006C92.17 121.029 99.965 128 109.334 128c10.278 0 18.666-8.388 18.666-18.666s-8.388-18.668-18.666-18.668zm0 5.334a13.293 13.293 0 0 1 13.332 13.334 13.29 13.29 0 0 1-13.332 13.332A13.293 13.293 0 0 1 96 109.334 13.294 13.294 0 0 1 109.334 96z"/>
    </symbol>
    <symbol id="git" viewBox="0 0 128 128">
      <path fill="#F34F29" d="M124.737 58.378L69.621 3.264c-3.172-3.174-8.32-3.174-11.497 0L46.68 14.71l14.518 14.518c3.375-1.139 7.243-.375 9.932 2.314 2.703 2.706 3.461 6.607 2.294 9.993l13.992 13.993c3.385-1.167 7.292-.413 9.994 2.295 3.78 3.777 3.78 9.9 0 13.679a9.673 9.673 0 01-13.683 0 9.677 9.677 0 01-2.105-10.521L68.574 47.933l-.002 34.341a9.708 9.708 0 012.559 1.828c3.778 3.777 3.778 9.898 0 13.683-3.779 3.777-9.904 3.777-13.679 0-3.778-3.784-3.778-9.905 0-13.683a9.65 9.65 0 013.167-2.11V47.333a9.581 9.581 0 01-3.167-2.111c-2.862-2.86-3.551-7.06-2.083-10.576L41.056 20.333 3.264 58.123a8.133 8.133 0 000 11.5l55.117 55.114c3.174 3.174 8.32 3.174 11.499 0l54.858-54.858a8.135 8.135 0 00-.001-11.501z"/>
    </symbol>
    <symbol id="openid" viewBox="0 0 24 24">
      <g fill="currentColor"><title>OpenID</title><path d="M14.54.889l-3.63 1.773v18.17c-4.15-.52-7.27-2.78-7.27-5.5 0-2.58 2.8-4.75 6.63-5.41v-2.31C4.42 8.322 0 11.502 0 15.332c0 3.96 4.74 7.24 10.91 7.78l3.63-1.71V.888m.64 6.724v2.31c1.43.25 2.71.7 3.76 1.31l-1.97 1.11 7.03 1.53-.5-5.21-1.87 1.06c-1.74-1.06-3.96-1.81-6.45-2.11z"/></g>
    </symbol>
    <symbol id="tests" viewBox="0 0 24 24">
      <circle cx="12" cy="12" r="10" fill="none" stroke="currentColor" stroke-width="1.8"/><path d="m6.5 12 3.5 3.5 7.5-8" fill="none" stroke="currentColor" stroke-width="2.2" stroke-linecap="round" stroke-linejoin="round"/>
    </symbol>
  </defs>

  <rect x="0.5" y="0.5" width="1199" height="389" rx="16" fill="url(#bg)" stroke="#25464c"/>
  <rect x="-260" width="260" height="390" fill="url(#scan)"><animate attributeName="x" values="-260;1200" dur="9s" repeatCount="indefinite"/></rect>
  <text class="kicker" x="35" y="35">STACK · ORGANIZADA POR RESPONSABILIDADE</text>
  <line x1="400" y1="58" x2="400" y2="350" stroke="#34555a"/>
  <line x1="800" y1="58" x2="800" y2="350" stroke="#34555a"/>

  <!-- Frontend -->
  <g>
    <text class="area" x="200" y="83" text-anchor="middle">FRONTEND</text>
    <g transform="translate(35 112)"><rect width="48" height="48" rx="11" fill="#102f35" stroke="#61dafb"/><use href="#react" x="10" y="10" width="28" height="28" style="color:#61dafb"/><text class="label" x="24" y="66" text-anchor="middle">React</text></g>
    <g transform="translate(95 112)"><rect width="48" height="48" rx="11" fill="#102f35" stroke="#3178c6"/><use href="#typescript" x="11" y="11" width="26" height="26" style="color:#3178c6"/><text class="label" x="24" y="66" text-anchor="middle">TypeScript</text></g>
    <g transform="translate(155 112)"><rect width="48" height="48" rx="11" fill="#102f35" stroke="#f7df1e"/><use href="#javascript" x="11" y="11" width="26" height="26" style="color:#f7df1e"/><text class="label" x="24" y="66" text-anchor="middle">JavaScript</text></g>
    <g transform="translate(215 112)"><rect width="48" height="48" rx="11" fill="#102f35" stroke="#a78bfa"/><use href="#vite" x="11" y="10" width="26" height="28" style="color:#a78bfa"/><text class="label" x="24" y="66" text-anchor="middle">Vite</text></g>
    <g transform="translate(275 112)"><rect width="48" height="48" rx="11" fill="#102f35" stroke="#e34f26"/><use href="#html5" x="11" y="10" width="26" height="28" style="color:#e34f26"/><text class="label" x="24" y="66" text-anchor="middle">HTML5</text></g>
    <g transform="translate(335 112)"><rect width="48" height="48" rx="11" fill="#102f35" stroke="#1572b6"/><use href="#css3" x="11" y="10" width="26" height="28" style="color:#1572b6"/><text class="label" x="24" y="66" text-anchor="middle">CSS3</text></g>
    <text class="summary" x="200" y="225" text-anchor="middle">Interfaces responsivas · componentes · estado</text>
    <text class="summary" x="200" y="245" text-anchor="middle">experiência de uso · design systems</text>
    <animate attributeName="opacity" values="0.82;1;0.82" dur="6s" repeatCount="indefinite"/>
  </g>

  <!-- Backend -->
  <g transform="translate(400 0)">
    <text class="area" x="200" y="83" text-anchor="middle">BACKEND &amp; APIs</text>
    <g transform="translate(79 112)"><rect width="54" height="54" rx="12" fill="#102f35" stroke="#5fa04e"/><use href="#node" x="13" y="13" width="28" height="28" style="color:#5fa04e"/><text class="label" x="27" y="72" text-anchor="middle">Node.js</text></g>
    <g transform="translate(142 112)"><rect width="54" height="54" rx="12" fill="#102f35" stroke="#f3f1e9"/><use href="#express" x="13" y="13" width="28" height="28" style="color:#f3f1e9"/><text class="label" x="27" y="72" text-anchor="middle">Express</text></g>
    <g transform="translate(205 112)"><rect width="54" height="54" rx="12" fill="#102f35" stroke="#f2b84b"/><use href="#java" x="13" y="11" width="28" height="30" style="color:#f2b84b"/><text class="label" x="27" y="72" text-anchor="middle">Java</text></g>
    <g transform="translate(268 112)"><rect width="54" height="54" rx="12" fill="#102f35" stroke="#25c4c7"/><use href="#rest" x="14" y="13" width="26" height="28" style="color:#25c4c7"/><text class="label" x="27" y="72" text-anchor="middle">REST</text></g>
    <text class="summary" x="200" y="225" text-anchor="middle">Regras de negócio · autenticação · contratos</text>
    <text class="summary" x="200" y="245" text-anchor="middle">APIs REST · integrações entre sistemas</text>
    <animate attributeName="opacity" values="0.82;1;0.82" dur="6s" begin="0.8s" repeatCount="indefinite"/>
  </g>

  <!-- Dados, integrações e entrega -->
  <g transform="translate(800 0)">
    <text class="area" x="200" y="83" text-anchor="middle">DADOS · INTEGRAÇÕES · ENTREGA</text>
    <g transform="translate(35 106)"><rect width="48" height="48" rx="11" fill="#102f35" stroke="#3fcf8e"/><use href="#supabase" x="11" y="10" width="26" height="28" style="color:#3fcf8e"/><text class="label" x="24" y="66" text-anchor="middle">Supabase</text></g>
    <g transform="translate(95 106)"><rect width="48" height="48" rx="11" fill="#102f35" stroke="#4169e1"/><use href="#postgresql" x="10" y="9" width="28" height="30" style="color:#6f8dff"/><text class="label" x="24" y="66" text-anchor="middle">PostgreSQL</text></g>
    <g transform="translate(155 106)"><rect width="48" height="48" rx="11" fill="#102f35" stroke="#38bdf8"/><use href="#sqlite" x="10" y="9" width="28" height="30" style="color:#38bdf8"/><text class="label" x="24" y="66" text-anchor="middle">SQLite</text></g>
    <g transform="translate(215 106)"><rect width="48" height="48" rx="11" fill="#102f35" stroke="#f80000"/><use href="#oracle" x="9" y="10" width="30" height="28" style="color:#fb7185"/><text class="label" x="24" y="66" text-anchor="middle">Oracle</text></g>
    <g transform="translate(275 106)"><rect width="48" height="48" rx="11" fill="#102f35" stroke="#2496ed"/><use href="#docker" x="9" y="9" width="30" height="30" style="color:#2496ed"/><text class="label" x="24" y="66" text-anchor="middle">Docker</text></g>
    <g transform="translate(335 106)"><rect width="48" height="48" rx="11" fill="#102f35" stroke="#a78bfa"/><use href="#actions" x="10" y="9" width="28" height="30" style="color:#a78bfa"/><text class="label" x="24" y="66" text-anchor="middle">Actions</text></g>
    <g transform="translate(125 198)"><rect width="54" height="54" rx="12" fill="#102f35" stroke="#f05032"/><use href="#git" x="13" y="13" width="28" height="28" style="color:#f05032"/><text class="label" x="27" y="72" text-anchor="middle">Git</text></g>
    <g transform="translate(188 198)"><rect width="54" height="54" rx="12" fill="#102f35" stroke="#f2b84b"/><use href="#openid" x="13" y="12" width="28" height="30" style="color:#f2b84b"/><text class="label" x="27" y="72" text-anchor="middle">SSO/OIDC</text></g>
    <g transform="translate(251 198)"><rect width="54" height="54" rx="12" fill="#102f35" stroke="#4ade80"/><use href="#tests" x="13" y="13" width="28" height="28" style="color:#4ade80"/><text class="label" x="27" y="72" text-anchor="middle">Testes</text></g>
    <text class="summary" x="200" y="310" text-anchor="middle">SQL · ERP · CI/CD · containers · identidade</text>
    <text class="summary" x="200" y="330" text-anchor="middle">dados confiáveis até a produção</text>
    <animate attributeName="opacity" values="0.82;1;0.82" dur="6s" begin="1.6s" repeatCount="indefinite"/>
  </g>

  <path d="M35 360 H1165" stroke="#34555a" stroke-width="1.5"/>
  <circle r="4" fill="#f2b84b"><animateMotion path="M35 360 H1165" dur="7s" repeatCount="indefinite"/></circle>
</svg>
